<svg width="1440" height="1024" viewBox="0 0 1440 1024" fill="none" xmlns="http://www.w3.org/2000/svg">
<rect width="1440" height="1024" fill="#FFF8EB"/>
<path d="M505.49 486.5V440.6H525.09V485.4C525.09 494.4 522.923 501.4 518.59 506.4C514.256 511.333 508.156 513.8 500.29 513.8C484.29 513.8 476.09 504.233 475.69 485.1H494.89C495.023 489.1 495.49 491.933 496.29 493.6C497.156 495.267 498.523 496.1 500.39 496.1C502.19 496.1 503.49 495.367 504.29 493.9C505.09 492.367 505.49 489.9 505.49 486.5ZM534.268 485V440.6H553.868V486.5C553.868 489.833 554.401 492.267 555.468 493.8C556.535 495.333 558.268 496.1 560.668 496.1C563.068 496.1 564.801 495.333 565.868 493.8C566.935 492.267 567.468 489.833 567.468 486.5V440.6H587.068V485C587.068 494.4 584.801 501.567 580.268 506.5C575.801 511.367 569.268 513.8 560.668 513.8C552.068 513.8 545.501 511.367 540.968 506.5C536.501 501.567 534.268 494.4 534.268 485ZM597.48 440.6H620.48C630.813 440.6 638.613 443.6 643.88 449.6C649.213 455.533 651.88 464.267 651.88 475.8C651.88 487.467 649.213 496.433 643.88 502.7C638.546 508.9 630.846 512 620.78 512H597.48V440.6ZM631.68 476.1C631.68 469.967 630.88 465.467 629.28 462.6C627.68 459.733 625.213 458.3 621.88 458.3H616.68V494.3H622.08C628.48 494.3 631.68 488.233 631.68 476.1ZM658.654 476.7C658.654 469.1 659.654 462.467 661.654 456.8C663.72 451.133 666.92 446.733 671.254 443.6C675.587 440.4 681.22 438.8 688.154 438.8C703.354 438.8 711.954 446.7 713.954 462.5L694.254 464.4C693.454 458.867 691.22 456.1 687.554 456.1C685.154 456.1 683.32 457.033 682.054 458.9C680.787 460.7 679.92 463.1 679.454 466.1C678.987 469.1 678.754 472.4 678.754 476C678.754 483.067 679.62 488.267 681.354 491.6C683.154 494.867 685.954 496.5 689.754 496.5C692.287 496.5 694.454 495.967 696.254 494.9V486H689.054V471.2H714.254V506C710.654 508.533 706.654 510.467 702.254 511.8C697.92 513.133 693.387 513.8 688.654 513.8C678.787 513.8 671.32 510.667 666.254 504.4C661.187 498.133 658.654 488.9 658.654 476.7ZM723.944 440.6H746.944L757.544 485.7L768.044 440.6H791.044V512H773.244V471.8L763.244 512H751.144L741.244 471.7V512H723.944V440.6ZM802.655 440.6H845.955V457.2H822.055V467.7H844.455V484.3H822.055V495.4H847.555L846.055 512H802.655V440.6ZM855.878 440.6H873.278L890.478 476.5V440.6H908.478V512H891.078L873.878 476.1V512H855.878V440.6ZM930.038 458.2H915.238V440.6H964.438V458.2H949.638V512H930.038V458.2Z" fill="#1A1A1A"/>
</svg>
