<svg width="59" height="60" viewBox="0 0 59 60" fill="none" xmlns="http://www.w3.org/2000/svg">
<path d="M25.2277 1.61035L24.0121 10.3213L15.909 14.9806L7.09669 11.9419L2.74121 19.6399L9.83149 25.0083L10.3379 34.1244L2.74121 39.9992L7.09669 48.1024L15.909 44.3546L22.9993 48.1024L24.62 57.3197L34.0399 58.2313L34.8503 48.1024L42.5483 44.3546L51.2592 48.1024L56.3237 39.9992L49.2334 34.1244V25.0083L56.3237 20.349L51.8669 11.9419L42.5483 14.9806L35.7619 10.929L34.8503 1.61035H25.2277Z" fill="#FCFCFC"/>
<path d="M35.2988 49.8025L34.2832 57.9929H34.1777L34.373 56.5603L35.3535 49.365L35.2988 49.8025ZM16.0391 44.3748C17.0078 45.2641 18.0105 46.036 19.0518 46.6804L19.6279 47.0222H19.6289C20.864 47.7216 22.2116 48.2867 23.6631 48.7283L23.6709 48.7878L22.668 48.4841L22.3174 48.3718C21.4881 48.0908 20.5714 47.6775 19.5645 47.1179H19.5635C18.4224 46.4827 17.4854 45.8202 16.7354 45.1394L15.9502 44.4265L14.9736 44.8425L7.48828 48.0261L5.7041 44.9167L6.76953 46.738L7.50488 47.9958L8.8457 47.4275L16.0391 44.3748ZM43.0225 44.3865L42.252 45.0359C41.283 45.8513 40.3193 46.5401 39.3613 47.1072C38.4205 47.6641 37.4454 48.1046 36.4346 48.4304L35.4365 48.7517L35.4502 48.6531C36.8304 48.2149 38.1123 47.6616 39.2881 46.9822L39.2871 46.9812C40.4937 46.2861 41.6897 45.3955 42.8799 44.3259L43.0225 44.3865ZM50.1562 47.4265L51.499 47.9978L52.1992 46.7996L51.498 48.0203L46.3389 45.7996L50.1562 47.4265ZM3.89941 38.9558L2.77637 39.8142L2.76953 39.8025L4.3457 38.613L3.89941 38.9558ZM29.4756 23.2117C31.3548 23.2117 32.8889 23.8456 34.1777 25.1345C35.4665 26.4234 36.1006 27.9575 36.1006 29.8367C36.1005 31.7158 35.4666 33.25 34.1777 34.5388C32.8889 35.8276 31.3548 36.4617 29.4756 36.4617C27.5803 36.4617 26.045 35.8254 24.7656 34.5408C23.4828 33.2525 22.8506 31.7179 22.8506 29.8367C22.8506 27.9552 23.4826 26.42 24.7656 25.1316C26.045 23.8469 27.5803 23.2117 29.4756 23.2117ZM3.91504 20.7292L10.165 25.3972C10.0361 25.9077 9.93708 26.4352 9.86816 26.9783C9.7484 27.9222 9.68945 28.8977 9.68945 29.9031C9.68947 30.815 9.75 31.7219 9.87012 32.6228C9.93997 33.1466 10.0342 33.663 10.1494 34.1726L10.0342 34.2615L9.87891 33.3269C9.83251 33.0485 9.79077 32.7646 9.75293 32.4753L9.65234 31.5906L9.65039 31.5798L9.61133 31.1462C9.57737 30.7178 9.56055 30.3021 9.56055 29.8992C9.56055 29.531 9.5766 29.1435 9.61035 28.7361L9.65039 28.321L9.65137 28.3093C9.7113 27.7143 9.78986 27.0386 9.8877 26.282L10.0117 25.3269L9.24219 24.7468L3.02734 20.0662L3.91504 20.7292ZM49.0322 26.6853C49.1892 27.2787 49.2667 27.7849 49.2832 28.2107C49.3045 28.7621 49.3145 29.3044 49.3145 29.8367L49.2998 30.5613L49.2529 31.3347V31.3416C49.217 31.8311 49.1307 32.457 48.9854 33.2302L48.7988 34.2195L48.7314 34.1687C48.8445 33.6828 48.9348 33.2103 48.999 32.7517L49.042 32.4089L49.043 32.405C49.1381 31.5533 49.1855 30.697 49.1855 29.8367C49.1855 28.9397 49.1387 28.0792 49.042 27.2576C48.98 26.731 48.8785 26.1851 48.7422 25.6208L48.748 25.616L49.0322 26.6853ZM56.3535 19.8738L53.3799 22.116L55.2227 20.7234L56.3506 19.8689L56.3535 19.8738ZM35.2988 9.8728L35.4248 10.8923L36.3936 11.2322C37.5793 11.6488 38.5991 12.1169 39.4639 12.6287C40.3466 13.1511 41.277 13.8181 42.2539 14.6384L43.0205 15.281L43.9463 14.9021L44.0693 14.8513L42.8652 15.3562C42.0371 14.5837 41.0813 13.859 40.0059 13.1804L39.3672 12.7908L39.3652 12.7898L38.7109 12.4197C37.594 11.8101 36.4925 11.3308 35.4072 10.9949L35.1025 8.28882L35.2988 9.8728ZM23.7256 10.9128C22.5621 11.2382 21.4549 11.667 20.4082 12.2058L19.8184 12.5242C18.5496 13.2418 17.3123 14.1673 16.1006 15.282L15.9346 15.2126L16.6162 14.6462C17.4157 13.9806 18.2752 13.3695 19.1963 12.8142L19.5947 12.5798L19.5967 12.5779C20.6627 11.9629 21.6797 11.5004 22.6475 11.1785L23.6318 10.8503L23.7676 9.82202L24.4932 4.29468L23.7256 10.9128Z" fill="#1A1A1A" stroke="#1A1A1A" stroke-width="3.31258"/>
</svg>
