<svg width="23" height="23" viewBox="0 0 23 23" fill="none" xmlns="http://www.w3.org/2000/svg">
<path d="M23.0035 11.2058C23.0035 5.0201 17.9787 0.00088501 11.7874 0.00088501C5.59611 0.00088501 0.571289 5.0201 0.571289 11.2058C0.571289 14.6127 2.11911 17.6831 4.54179 19.7441C4.56423 19.7665 4.58666 19.7665 4.58666 19.7889C4.78855 19.9459 4.99044 20.103 5.21476 20.26C5.32692 20.3273 5.41665 20.4156 5.52881 20.5054C7.38312 21.7605 9.57067 22.4319 11.8098 22.4331C14.049 22.4319 16.2366 21.7605 18.0909 20.5054C18.203 20.4381 18.2928 20.3497 18.4049 20.281C18.6068 20.1254 18.8311 19.9684 19.033 19.8114C19.0555 19.7889 19.0779 19.7889 19.0779 19.7665C21.4557 17.6817 23.0035 14.6127 23.0035 11.2058ZM11.7874 21.0213C9.67878 21.0213 7.7496 20.3483 6.15692 19.2281C6.17935 19.0487 6.22421 18.8706 6.26908 18.6911C6.40319 18.2049 6.5992 17.738 6.85231 17.3017C7.09907 16.8755 7.39069 16.4942 7.7496 16.1577C8.08609 15.8212 8.48987 15.5086 8.89365 15.2618C9.31986 15.0151 9.76851 14.8356 10.262 14.701C10.7595 14.5678 11.2724 14.5004 11.7874 14.5005C13.3167 14.4889 14.7899 15.0756 15.8925 16.1353C16.4084 16.6512 16.8122 17.2564 17.1038 17.9509C17.2609 18.3547 17.373 18.7804 17.4403 19.2281C15.7848 20.392 13.8111 21.0181 11.7874 21.0213ZM8.35528 10.6464C8.15803 10.1937 8.05865 9.70447 8.06366 9.21072C8.06366 8.71861 8.15339 8.2251 8.35528 7.77646C8.55717 7.32781 8.82635 6.92544 9.16284 6.58895C9.49932 6.25247 9.9031 5.98468 10.3517 5.78279C10.8004 5.5809 11.2939 5.49117 11.7874 5.49117C12.3033 5.49117 12.7744 5.5809 13.2231 5.78279C13.6717 5.98468 14.0755 6.25387 14.412 6.58895C14.7485 6.92544 15.0176 7.32922 15.2195 7.77646C15.4214 8.2251 15.5112 8.71861 15.5112 9.21072C15.5112 9.72666 15.4214 10.1977 15.2195 10.645C15.0258 11.0876 14.752 11.4907 14.412 11.8339C14.0686 12.1734 13.6656 12.4467 13.2231 12.64C12.2959 13.0202 11.2564 13.0202 10.3293 12.64C9.8868 12.4467 9.48375 12.1734 9.1404 11.8339C8.80006 11.4955 8.53283 11.0923 8.35528 10.6464ZM18.7638 18.0855C18.7638 18.0406 18.7414 18.0182 18.7414 17.9733C18.5212 17.2713 18.196 16.6067 17.7768 16.0021C17.3573 15.393 16.8422 14.8557 16.2514 14.4108C15.8001 14.0711 15.3107 13.7851 14.7933 13.5584C15.0276 13.4016 15.2456 13.2217 15.4439 13.0214C15.7783 12.6912 16.072 12.3222 16.3187 11.9222C16.8172 11.1067 17.0739 10.1664 17.059 9.21072C17.0663 8.50339 16.9289 7.80203 16.6552 7.14976C16.3853 6.52117 15.9969 5.95044 15.5112 5.46874C15.025 4.99353 14.4544 4.61316 13.8287 4.34713C13.1755 4.07353 12.4732 3.93659 11.765 3.94475C11.0567 3.93704 10.3543 4.07445 9.70121 4.34853C9.06868 4.61131 8.49626 5.00008 8.01879 5.49117C7.5411 5.97483 7.16038 6.54543 6.89718 7.17219C6.62348 7.82446 6.48607 8.52582 6.4934 9.23315C6.4934 9.72666 6.5607 10.1973 6.69529 10.645C6.82988 11.1161 7.00934 11.5423 7.2561 11.9446C7.48042 12.3484 7.79447 12.7073 8.13095 13.0438C8.33284 13.2457 8.55717 13.4247 8.80392 13.5808C8.28419 13.8122 7.79456 14.106 7.34582 14.4557C6.76259 14.9043 6.24664 15.4413 5.82043 16.0245C5.39741 16.6269 5.07189 17.2921 4.85585 17.9957C4.83341 18.0406 4.83341 18.0855 4.83341 18.1079C3.06127 16.3147 1.96209 13.8949 1.96209 11.2058C1.96209 5.80523 6.38124 1.39028 11.7874 1.39028C17.1936 1.39028 21.6127 5.80523 21.6127 11.2058C21.6098 13.7854 20.5855 16.259 18.7638 18.0855Z" fill="#FFF7F7"/>
</svg>
