<svg width="21" height="19" viewBox="0 0 21 19" fill="none" xmlns="http://www.w3.org/2000/svg">
<path fill-rule="evenodd" clip-rule="evenodd" d="M6.16211 0.930054C3.11982 0.930054 0.662109 3.38777 0.662109 6.43005C0.662109 7.56301 1.00371 8.61676 1.5925 9.4884C1.8456 9.86563 2.52034 10.6406 3.30805 11.5158C4.12449 12.4229 5.13393 13.5151 6.11479 14.5661C7.0963 15.6178 8.05208 16.6312 8.76229 17.3814C9.11745 17.7566 9.41135 18.0662 9.61651 18.282L9.85431 18.5319L9.91688 18.5976L9.93297 18.6145L9.93706 18.6188L9.93811 18.6199L9.93838 18.6201C9.93844 18.6202 9.93847 18.6202 10.4628 18.1201L9.93848 18.6202C10.1272 18.8181 10.3887 18.9301 10.6621 18.9301C10.9355 18.9301 11.197 18.8181 11.3857 18.6202L10.812 18.073C11.3857 18.6202 11.3858 18.6202 11.3858 18.6201L11.3861 18.6199L11.3872 18.6188L11.3913 18.6145L11.4073 18.5976L11.4699 18.5319L11.7077 18.282C11.9129 18.0662 12.2068 17.7566 12.5619 17.3814C13.2721 16.6312 14.2279 15.6178 15.2094 14.5661C16.1903 13.5151 17.1997 12.4229 18.0162 11.5158C18.8027 10.6419 19.4766 9.868 19.7306 9.49013C20.3201 8.61815 20.6621 7.56376 20.6621 6.43005C20.6621 3.38777 18.2044 0.930054 15.1621 0.930054C13.2388 0.930054 11.6825 1.95672 10.6621 3.27774C9.6417 1.95672 8.08538 0.930054 6.16211 0.930054Z" fill="#FFF7F7"/>
</svg>
