<svg width="21" height="19" viewBox="0 0 21 19" fill="none" xmlns="http://www.w3.org/2000/svg">
<path d="M10.8403 4.217C10.8403 4.217 10.8403 4.217 10.0803 3.217C9.20033 2.057 7.90033 1.217 6.34033 1.217C3.85033 1.217 1.84033 3.227 1.84033 5.717C1.84033 6.647 2.12033 7.507 2.60033 8.217C3.41033 9.427 10.8403 17.217 10.8403 17.217M10.8403 4.217C10.8403 4.217 10.8403 4.217 11.6003 3.217C12.4803 2.057 13.7803 1.217 15.3403 1.217C17.8303 1.217 19.8403 3.227 19.8403 5.717C19.8403 6.647 19.5603 7.507 19.0803 8.217C18.2703 9.427 10.8403 17.217 10.8403 17.217" stroke="#FFF7F7" stroke-width="2" stroke-linecap="round" stroke-linejoin="round"/>
</svg>
