<svg width="17" height="18" viewBox="0 0 17 18" fill="none" xmlns="http://www.w3.org/2000/svg">
<path d="M2.94065 15.793H5.94154V10.7915C5.94154 10.5081 6.03756 10.2707 6.22962 10.0793C6.42168 9.88794 6.65908 9.79192 6.94183 9.79125H10.943C11.2264 9.79125 11.4642 9.88728 11.6562 10.0793C11.8483 10.2714 11.944 10.5088 11.9433 10.7915V15.793H14.9442V6.79037L8.94242 2.28904L2.94065 6.79037V15.793ZM0.940063 15.793V6.79037C0.940063 6.47361 1.01108 6.17352 1.15313 5.8901C1.29517 5.60668 1.49089 5.37328 1.7403 5.18989L7.74207 0.68857C8.09217 0.421825 8.49229 0.288452 8.94242 0.288452C9.39255 0.288452 9.79267 0.421825 10.1428 0.68857L16.1445 5.18989C16.3946 5.37328 16.5907 5.60668 16.7327 5.8901C16.8748 6.17352 16.9454 6.47361 16.9448 6.79037V15.793C16.9448 16.3432 16.7487 16.8143 16.3566 17.2064C15.9645 17.5985 15.4937 17.7943 14.9442 17.7936H10.943C10.6596 17.7936 10.4222 17.6976 10.2308 17.5055C10.0394 17.3135 9.94338 17.0761 9.94271 16.7933V11.7918H7.94212V16.7933C7.94212 17.0767 7.8461 17.3145 7.65404 17.5065C7.46198 17.6986 7.22458 17.7943 6.94183 17.7936H2.94065C2.39049 17.7936 1.91969 17.5979 1.52824 17.2064C1.13679 16.815 0.94073 16.3438 0.940063 15.793Z" fill="#FFF7F7"/>
</svg>
