<svg width="21" height="21" viewBox="0 0 21 21" fill="none" xmlns="http://www.w3.org/2000/svg">
<path d="M5.92842 0.46814H14.3284C17.5284 0.46814 20.1284 3.06814 20.1284 6.26814V14.6681C20.1284 16.2064 19.5173 17.6816 18.4296 18.7694C17.3419 19.8571 15.8667 20.4681 14.3284 20.4681H5.92842C2.72842 20.4681 0.128418 17.8681 0.128418 14.6681V6.26814C0.128418 4.72988 0.739488 3.25463 1.8272 2.16692C2.91491 1.07921 4.39016 0.46814 5.92842 0.46814ZM5.72842 2.46814C4.77364 2.46814 3.85796 2.84742 3.18283 3.52256C2.5077 4.19769 2.12842 5.11336 2.12842 6.06814V14.8681C2.12842 16.8581 3.73842 18.4681 5.72842 18.4681H14.5284C15.4832 18.4681 16.3989 18.0889 17.074 17.4137C17.7491 16.7386 18.1284 15.8229 18.1284 14.8681V6.06814C18.1284 4.07814 16.5184 2.46814 14.5284 2.46814H5.72842ZM15.3784 3.96814C15.7099 3.96814 16.0279 4.09984 16.2623 4.33426C16.4967 4.56868 16.6284 4.88662 16.6284 5.21814C16.6284 5.54966 16.4967 5.8676 16.2623 6.10202C16.0279 6.33644 15.7099 6.46814 15.3784 6.46814C15.0469 6.46814 14.729 6.33644 14.4945 6.10202C14.2601 5.8676 14.1284 5.54966 14.1284 5.21814C14.1284 4.88662 14.2601 4.56868 14.4945 4.33426C14.729 4.09984 15.0469 3.96814 15.3784 3.96814ZM10.1284 5.46814C11.4545 5.46814 12.7263 5.99492 13.664 6.93261C14.6016 7.87029 15.1284 9.14206 15.1284 10.4681C15.1284 11.7942 14.6016 13.066 13.664 14.0037C12.7263 14.9414 11.4545 15.4681 10.1284 15.4681C8.80234 15.4681 7.53057 14.9414 6.59288 14.0037C5.6552 13.066 5.12842 11.7942 5.12842 10.4681C5.12842 9.14206 5.6552 7.87029 6.59288 6.93261C7.53057 5.99492 8.80234 5.46814 10.1284 5.46814ZM10.1284 7.46814C9.33277 7.46814 8.56971 7.78421 8.0071 8.34682C7.44449 8.90943 7.12842 9.67249 7.12842 10.4681C7.12842 11.2638 7.44449 12.0269 8.0071 12.5895C8.56971 13.1521 9.33277 13.4681 10.1284 13.4681C10.9241 13.4681 11.6871 13.1521 12.2497 12.5895C12.8123 12.0269 13.1284 11.2638 13.1284 10.4681C13.1284 9.67249 12.8123 8.90943 12.2497 8.34682C11.6871 7.78421 10.9241 7.46814 10.1284 7.46814Z" fill="#FFF7F7"/>
</svg>
