<svg width="11" height="17" viewBox="0 0 11 17" fill="none" xmlns="http://www.w3.org/2000/svg">
<path d="M9.93452 1.18763C9.81069 1.06278 9.66337 0.96368 9.50104 0.896053C9.33872 0.828427 9.16462 0.79361 8.98877 0.79361C8.81292 0.79361 8.63882 0.828427 8.4765 0.896053C8.31417 0.96368 8.16685 1.06278 8.04302 1.18763L1.38279 7.84786C1.25794 7.97169 1.15884 8.11901 1.09121 8.28134C1.02359 8.44366 0.98877 8.61776 0.98877 8.79361C0.98877 8.96946 1.02359 9.14356 1.09121 9.30588C1.15884 9.46821 1.25794 9.61553 1.38279 9.73936L8.04302 16.3996C8.16685 16.5244 8.31417 16.6235 8.4765 16.6912C8.63882 16.7588 8.81292 16.7936 8.98877 16.7936C9.16462 16.7936 9.33872 16.7588 9.50104 16.6912C9.66337 16.6235 9.81069 16.5244 9.93452 16.3996C10.0594 16.2758 10.1585 16.1284 10.2261 15.9661C10.2937 15.8038 10.3285 15.6297 10.3285 15.4538C10.3285 15.278 10.2937 15.1039 10.2261 14.9416C10.1585 14.7792 10.0594 14.6319 9.93452 14.5081L4.20672 8.79361L9.93452 3.07913C10.0594 2.9553 10.1585 2.80798 10.2261 2.64565C10.2937 2.48333 10.3285 2.30923 10.3285 2.13338C10.3285 1.95753 10.2937 1.78343 10.2261 1.62111C10.1585 1.45878 10.0594 1.31146 9.93452 1.18763Z" fill="#FFF7F7"/>
</svg>
