<svg width="17" height="17" viewBox="0 0 17 17" fill="none" xmlns="http://www.w3.org/2000/svg">
<path d="M3.81374 2.52009C3.81352 2.97088 3.63422 3.40312 3.3153 3.72172C2.99639 4.04032 2.56397 4.21918 2.11317 4.21895C1.66238 4.21873 1.23014 4.03943 0.911541 3.72052C0.592942 3.4016 0.414081 2.96918 0.414307 2.51839C0.414532 2.06759 0.593825 1.63535 0.912743 1.31675C1.23166 0.998154 1.66408 0.819294 2.11487 0.819519C2.56567 0.819745 2.99791 0.999038 3.31651 1.31796C3.63511 1.63687 3.81397 2.06929 3.81374 2.52009ZM3.86473 5.47759H0.465298V16.1178H3.86473V5.47759ZM9.23584 5.47759H5.8534V16.1178H9.20184V10.5343C9.20184 7.42377 13.2557 7.13482 13.2557 10.5343V16.1178H16.6126V9.37844C16.6126 4.13482 10.6126 4.33028 9.20184 6.90536L9.23584 5.47759Z" fill="#FFF7F7"/>
</svg>
