<svg width="5" height="19" viewBox="0 0 5 19" fill="none" xmlns="http://www.w3.org/2000/svg">
<path d="M2.89038 1.76817C2.62516 1.76817 2.37081 1.87353 2.18327 2.06107C1.99574 2.2486 1.89038 2.50296 1.89038 2.76817C1.89038 3.03339 1.99574 3.28774 2.18327 3.47528C2.37081 3.66282 2.62516 3.76817 2.89038 3.76817C3.1556 3.76817 3.40995 3.66282 3.59749 3.47528C3.78502 3.28774 3.89038 3.03339 3.89038 2.76817C3.89038 2.50296 3.78502 2.2486 3.59749 2.06107C3.40995 1.87353 3.1556 1.76817 2.89038 1.76817ZM2.89038 8.76817C2.62516 8.76817 2.37081 8.87353 2.18327 9.06107C1.99574 9.2486 1.89038 9.50296 1.89038 9.76817C1.89038 10.0334 1.99574 10.2877 2.18327 10.4753C2.37081 10.6628 2.62516 10.7682 2.89038 10.7682C3.1556 10.7682 3.40995 10.6628 3.59749 10.4753C3.78502 10.2877 3.89038 10.0334 3.89038 9.76817C3.89038 9.50296 3.78502 9.2486 3.59749 9.06107C3.40995 8.87353 3.1556 8.76817 2.89038 8.76817ZM2.89038 15.7682C2.62516 15.7682 2.37081 15.8735 2.18327 16.0611C1.99574 16.2486 1.89038 16.503 1.89038 16.7682C1.89038 17.0334 1.99574 17.2877 2.18327 17.4753C2.37081 17.6628 2.62516 17.7682 2.89038 17.7682C3.1556 17.7682 3.40995 17.6628 3.59749 17.4753C3.78502 17.2877 3.89038 17.0334 3.89038 16.7682C3.89038 16.503 3.78502 16.2486 3.59749 16.0611C3.40995 15.8735 3.1556 15.7682 2.89038 15.7682Z" stroke="#FFF7F7" stroke-width="2" stroke-linecap="round" stroke-linejoin="round"/>
</svg>
