<svg width="16" height="15" viewBox="0 0 16 15" fill="none" xmlns="http://www.w3.org/2000/svg">
<path d="M8.12207 14.9843C12.2525 14.9843 15.6006 11.6362 15.6006 7.5058C15.6006 7.15955 15.0816 7.10196 14.9028 7.39886C14.5216 8.0303 14.0017 8.56671 13.3825 8.96745C12.7632 9.3682 12.0609 9.62277 11.3287 9.71189C10.5965 9.80101 9.85367 9.72234 9.15638 9.48183C8.4591 9.24133 7.82569 8.8453 7.30413 8.32374C6.78257 7.80218 6.38654 7.16877 6.14604 6.47149C5.90553 5.7742 5.82686 5.03133 5.91598 4.29914C6.0051 3.56695 6.25967 2.86464 6.66042 2.2454C7.06116 1.62617 7.59757 1.10625 8.22901 0.725032C8.52591 0.545548 8.46833 0.0272865 8.12207 0.0272865C3.99169 0.0272865 0.643555 3.37542 0.643555 7.5058C0.643555 11.6362 3.99169 14.9843 8.12207 14.9843Z" fill="#24292D"/>
</svg>
