<svg width="17" height="17" viewBox="0 0 17 17" fill="none" xmlns="http://www.w3.org/2000/svg">
<path d="M8.43921 16.7936C6.20588 16.7936 4.31421 16.0186 2.76421 14.4686C1.21421 12.9186 0.439209 11.0269 0.439209 8.79361C0.439209 6.56028 1.21421 4.66861 2.76421 3.11861C4.31421 1.56861 6.20588 0.793613 8.43921 0.793613C9.58921 0.793613 10.6892 1.03095 11.7392 1.50561C12.7892 1.98028 13.6892 2.65961 14.4392 3.54361V1.79361C14.4392 1.51028 14.5352 1.27295 14.7272 1.08161C14.9192 0.89028 15.1565 0.79428 15.4392 0.793613C15.7219 0.792946 15.9595 0.888947 16.1522 1.08161C16.3449 1.27428 16.4405 1.51161 16.4392 1.79361V6.79361C16.4392 7.07695 16.3432 7.31461 16.1512 7.50661C15.9592 7.69861 15.7219 7.79428 15.4392 7.79361H10.4392C10.1559 7.79361 9.91854 7.69761 9.72721 7.50561C9.53588 7.31361 9.43988 7.07628 9.43921 6.79361C9.43854 6.51095 9.53454 6.27361 9.72721 6.08161C9.91988 5.88961 10.1572 5.79361 10.4392 5.79361H13.6392C13.1059 4.86028 12.3769 4.12695 11.4522 3.59361C10.5275 3.06028 9.52321 2.79361 8.43921 2.79361C6.77254 2.79361 5.35588 3.37695 4.18921 4.54361C3.02254 5.71028 2.43921 7.12695 2.43921 8.79361C2.43921 10.4603 3.02254 11.8769 4.18921 13.0436C5.35588 14.2103 6.77254 14.7936 8.43921 14.7936C9.57254 14.7936 10.6102 14.5063 11.5522 13.9316C12.4942 13.3569 13.2232 12.5859 13.7392 11.6186C13.8725 11.3853 14.0602 11.2229 14.3022 11.1316C14.5442 11.0403 14.7899 11.0359 15.0392 11.1186C15.3059 11.2019 15.4975 11.3769 15.6142 11.6436C15.7309 11.9103 15.7225 12.1603 15.5892 12.3936C14.9059 13.7269 13.9309 14.7936 12.6642 15.5936C11.3975 16.3936 9.98921 16.7936 8.43921 16.7936Z" fill="#FFF7F7"/>
</svg>
