<svg width="10" height="17" viewBox="0 0 10 17" fill="none" xmlns="http://www.w3.org/2000/svg">
<path d="M0.537646 16.3996C0.661477 16.5244 0.808802 16.6235 0.971125 16.6912C1.13345 16.7588 1.30755 16.7936 1.4834 16.7936C1.65924 16.7936 1.83335 16.7588 1.99567 16.6912C2.15799 16.6235 2.30532 16.5244 2.42915 16.3996L9.08938 9.73936C9.21423 9.61553 9.31333 9.46821 9.38096 9.30588C9.44858 9.14356 9.4834 8.96946 9.4834 8.79361C9.4834 8.61776 9.44858 8.44366 9.38096 8.28134C9.31333 8.11901 9.21423 7.97169 9.08938 7.84786L2.42915 1.18763C2.30532 1.06278 2.158 0.963678 1.99567 0.896052C1.83335 0.828426 1.65925 0.793609 1.4834 0.793609C1.30755 0.793609 1.13345 0.828426 0.971126 0.896052C0.808804 0.963678 0.661478 1.06278 0.537647 1.18763C0.412797 1.31146 0.3137 1.45878 0.246074 1.6211C0.178448 1.78343 0.14363 1.95753 0.14363 2.13338C0.14363 2.30922 0.178448 2.48333 0.246074 2.64565C0.3137 2.80797 0.412796 2.9553 0.537647 3.07913L6.26544 8.79361L0.537646 14.5081C0.412795 14.6319 0.313699 14.7792 0.246073 14.9416C0.178447 15.1039 0.143629 15.278 0.143629 15.4538C0.143629 15.6297 0.178447 15.8038 0.246073 15.9661C0.313699 16.1284 0.412795 16.2758 0.537646 16.3996Z" fill="#FFF7F7"/>
</svg>
