<svg width="17" height="18" viewBox="0 0 17 18" fill="none" xmlns="http://www.w3.org/2000/svg">
<path d="M16.4823 16.9658C16.0957 17.3524 15.4689 17.3524 15.0823 16.9658L10.5847 12.4682C10.0847 12.8682 9.50967 13.1848 8.85967 13.4182C8.20967 13.6515 7.518 13.7682 6.78467 13.7682C4.968 13.7682 3.43067 13.1388 2.17267 11.8802C0.914668 10.6215 0.285335 9.08417 0.284668 7.26817C0.284002 5.45217 0.913335 3.91484 2.17267 2.65617C3.432 1.39751 4.96934 0.768173 6.78467 0.768173C8.6 0.768173 10.1377 1.39751 11.3977 2.65617C12.6577 3.91484 13.2867 5.45217 13.2847 7.26817C13.2847 8.00151 13.168 8.69317 12.9347 9.34317C12.7013 9.99317 12.3847 10.5682 11.9847 11.0682L16.4823 15.5658C16.8689 15.9524 16.8689 16.5792 16.4823 16.9658V16.9658ZM6.78467 11.7682C8.03467 11.7682 9.09734 11.3308 9.97267 10.4562C10.848 9.58151 11.2853 8.51884 11.2847 7.26817C11.284 6.01751 10.8467 4.95517 9.97267 4.08117C9.09867 3.20717 8.036 2.76951 6.78467 2.76817C5.53334 2.76684 4.471 3.20451 3.59767 4.08117C2.72434 4.95784 2.28667 6.02017 2.28467 7.26817C2.28267 8.51617 2.72034 9.57884 3.59767 10.4562C4.475 11.3335 5.53734 11.7708 6.78467 11.7682Z" fill="black"/>
</svg>
