<svg width="1142" height="477" viewBox="0 0 1142 477" fill="none" xmlns="http://www.w3.org/2000/svg">
<path d="M980.863 7.18014C980.863 4.41872 983.101 2.18015 985.863 2.18015H1071.48C1110.14 2.18015 1141.48 33.5202 1141.48 72.1801V406.043C1141.48 444.703 1110.14 476.043 1071.48 476.043H985.863C983.101 476.043 980.863 473.804 980.863 471.043V7.18014Z" fill="#FF6054"/>
<path d="M161.441 6.64629C161.441 3.88487 159.203 1.64629 156.441 1.64629H70.8283C32.1684 1.64629 0.828308 32.9864 0.828308 71.6463V406.043C0.828308 444.703 32.1684 476.043 70.8283 476.043H156.441C159.203 476.043 161.441 473.804 161.441 471.043V6.64629Z" fill="#00BEDF"/>
<path d="M295.498 1.88644H319.277V0.0739441H341.82V1.88644H965.375V11.4597C965.375 17.2919 970.103 22.0201 975.936 22.0202C977.715 22.0202 979.391 21.5779 980.862 20.8005V476.043H161.442V18.8562C163.359 20.8076 166.025 22.0202 168.977 22.0202C174.809 22.02 179.537 17.2919 179.537 11.4597V1.88644H272.954V0.0739441H295.498V1.88644Z" fill="#2D3136"/>
<circle cx="1027.59" cy="343.447" r="18.9443" fill="#8E9692"/>
<circle cx="1053.91" cy="85.8433" r="17.1527" fill="#404447"/>
<circle cx="1053.91" cy="156.678" r="17.1527" fill="#404447"/>
<circle cx="1053.91" cy="255.068" r="36.8472" fill="#404447"/>
<circle cx="1027.59" cy="343.447" r="14.1314" fill="#404447"/>
<circle cx="1090.75" cy="122.372" r="17.1527" fill="#404447"/>
<circle cx="1016.42" cy="122.372" r="17.1527" fill="#404447"/>
<path d="M1009.13 45.9623H1020.02V50.9457H1009.13V61.8403H1004.15V50.9457H993.251V46.1303H1004.15V35.2426H1009.13V45.9623Z" fill="#404447"/>
<rect x="125.473" y="44.0344" width="25.0922" height="8.90938" rx="1.67764" fill="#404447"/>
<circle cx="90.6488" cy="218.859" r="17.1527" fill="#404447"/>
<circle cx="90.6488" cy="289.694" r="17.1527" fill="#404447"/>
<circle cx="127.496" cy="255.388" r="17.1527" fill="#404447"/>
<circle cx="53.1664" cy="255.388" r="17.1527" fill="#404447"/>
<circle cx="90.649" cy="122.189" r="36.8472" fill="#404447"/>
<rect x="101.365" y="328.296" width="30.2342" height="30.2342" rx="3.35527" fill="#404649"/>
<circle cx="116.482" cy="343.343" r="9.03826" fill="#333539"/>
<rect x="190.782" y="19.0539" width="763.448" height="440.07" rx="16.7764" fill="black"/>
</svg>
