<svg width="51" height="65" viewBox="0 0 51 65" fill="none" xmlns="http://www.w3.org/2000/svg">
<path d="M47.6003 2.979H3.65576V60.9536L47.6003 60.026V2.979Z" fill="#FCFCFC"/>
<path d="M11.592 16.1039H20.7653M11.592 32.1572H39.1119M11.592 41.3305H39.1119M11.592 50.5038H20.7653M7.00535 61.9705H43.6986C44.915 61.9705 46.0817 61.4872 46.9418 60.6271C47.802 59.7669 48.2852 58.6003 48.2852 57.3838V6.93065C48.2852 5.71419 47.802 4.54756 46.9418 3.68739C46.0817 2.82723 44.915 2.34399 43.6986 2.34399H7.00535C5.7889 2.34399 4.62226 2.82723 3.7621 3.68739C2.90194 4.54756 2.4187 5.71419 2.4187 6.93065V57.3838C2.4187 58.6003 2.90194 59.7669 3.7621 60.6271C4.62226 61.4872 5.7889 61.9705 7.00535 61.9705Z" stroke="#1A1A1A" stroke-width="4.58665" stroke-linecap="round" stroke-linejoin="round"/>
<path d="M39.112 17.2506C39.7453 17.2506 40.2587 16.7372 40.2587 16.1039C40.2587 15.4707 39.7453 14.9573 39.112 14.9573C38.4787 14.9573 37.9653 15.4707 37.9653 16.1039C37.9653 16.7372 38.4787 17.2506 39.112 17.2506Z" fill="#1A1A1A" stroke="#1A1A1A" stroke-width="2.29333"/>
</svg>
